# Blender 3.4.1
# www.blender.org
mtllib silla.mtl
o Cubo.005
v -0.527863 1.033854 0.433080
v -0.527863 2.242899 0.433080
v -0.527863 1.033854 0.247372
v -0.527863 2.242899 0.247372
v 0.535155 1.033854 0.433080
v 0.535155 2.242899 0.433080
v 0.535155 1.033854 0.247372
v 0.535155 2.242899 0.247372
v -0.527863 1.033854 0.340226
v -0.527863 1.638376 0.433080
v -0.527863 2.242899 0.340226
v -0.527863 1.638376 0.247372
v -0.002806 1.534557 0.224005
v 0.003646 2.242899 0.247372
v 0.535155 1.638376 0.247372
v 0.535155 1.033854 0.340226
v 0.535155 2.242899 0.340226
v 0.535155 1.638376 0.433080
v 0.000971 1.531663 0.433080
v 0.003646 2.242899 0.433080
v 0.003646 2.242899 0.340226
v -0.006014 1.946615 0.340226
v 0.003646 1.942576 0.433080
v 0.535155 1.638376 0.340226
v -0.004642 1.948379 0.247372
v -0.527863 1.638376 0.340226
v -0.535272 0.971268 0.442496
v -0.535272 1.095332 0.442496
v -0.535272 0.971268 -0.635340
v -0.535272 1.095332 -0.635340
v 0.542565 0.971268 0.442496
v 0.542565 1.095332 0.442496
v 0.542565 0.971268 -0.635340
v 0.542565 1.095332 -0.635340
v 0.341473 -0.180779 0.435828
v 0.341473 0.987107 0.435828
v 0.341473 -0.180779 0.238023
v 0.341473 0.987107 0.238023
v 0.532869 -0.180779 0.435828
v 0.532869 0.987107 0.435828
v 0.532869 -0.180779 0.238023
v 0.532869 0.987107 0.238023
v 0.341473 -0.180779 -0.436766
v 0.341473 0.987107 -0.436766
v 0.341473 -0.180779 -0.634571
v 0.341473 0.987107 -0.634571
v 0.532869 -0.180779 -0.436766
v 0.532869 0.987107 -0.436766
v 0.532869 -0.180779 -0.634571
v 0.532869 0.987107 -0.634571
v -0.535332 -0.180779 0.435828
v -0.535332 0.987107 0.435828
v -0.535332 -0.180779 0.238023
v -0.535332 0.987107 0.238023
v -0.343937 -0.180779 0.435828
v -0.343937 0.987107 0.435828
v -0.343937 -0.180779 0.238023
v -0.343937 0.987107 0.238023
v -0.535332 -0.180779 -0.434984
v -0.535332 0.987107 -0.434984
v -0.535332 -0.180779 -0.632789
v -0.535332 0.987107 -0.632789
v -0.343937 -0.180779 -0.434984
v -0.343937 0.987107 -0.434984
v -0.343937 -0.180779 -0.632789
v -0.343937 0.987107 -0.632789
vn -1.0000 -0.0000 -0.0000
vn -0.0000 -0.0000 -1.0000
vn 1.0000 -0.0000 -0.0000
vn -0.0000 -0.0000 1.0000
vn -0.3540 -0.2099 -0.9114
vn -0.0000 1.0000 -0.0000
vn 0.6854 -0.7281 -0.0000
vn 0.6901 -0.7237 -0.0000
vn -0.4205 -0.2493 0.8724
vn 0.0434 -0.0000 -0.9991
vn -0.0445 -0.0000 -0.9990
vn -0.0000 -1.0000 -0.0000
vn -0.6818 -0.7316 -0.0000
vn 0.3483 -0.1991 -0.9160
vn 0.4245 -0.2427 0.8723
vn -0.6813 -0.7320 -0.0000
vn 0.0324 0.0565 -0.9979
vn -0.0333 0.0562 -0.9979
vt 0.125000 0.750000
vt 0.375000 1.000000
vt 0.375000 0.000000
vt 0.625000 1.000000
vt 0.875000 0.750000
vt 0.625000 0.000000
vt 0.125000 0.500000
vt 0.375000 0.250000
vt 0.875000 0.500000
vt 0.625000 0.250000
vt 0.375000 0.750000
vt 0.625000 0.750000
vt 0.375000 0.500000
vt 0.625000 0.500000
vt 0.125000 0.625000
vt 0.375000 0.125000
vt 0.500000 1.000000
vt 0.500000 0.000000
vt 0.875000 0.625000
vt 0.625000 0.125000
vt 0.500000 0.250000
vt 0.250000 0.500000
vt 0.375000 0.375000
vt 0.750000 0.500000
vt 0.625000 0.375000
vt 0.500000 0.500000
vt 0.375000 0.625000
vt 0.625000 0.625000
vt 0.500000 0.750000
vt 0.250000 0.750000
vt 0.375000 0.875000
vt 0.750000 0.750000
vt 0.625000 0.875000
vt 0.750000 0.625000
vt 0.250000 0.625000
vt 0.500000 0.875000
vt 0.500000 0.625000
vt 0.500000 0.375000
vt 0.500000 0.125000
vt 0.375000 0.000000
vt 0.375000 1.000000
vt 0.125000 0.750000
vt 0.625000 0.000000
vt 0.625000 1.000000
vt 0.875000 0.750000
vt 0.125000 0.500000
vt 0.375000 0.250000
vt 0.625000 0.250000
vt 0.875000 0.500000
vt 0.375000 0.750000
vt 0.625000 0.750000
vt 0.375000 0.500000
vt 0.625000 0.500000
vt 0.375000 0.000000
vt 0.375000 1.000000
vt 0.125000 0.750000
vt 0.625000 0.000000
vt 0.625000 1.000000
vt 0.875000 0.750000
vt 0.125000 0.500000
vt 0.375000 0.250000
vt 0.625000 0.250000
vt 0.875000 0.500000
vt 0.375000 0.750000
vt 0.625000 0.750000
vt 0.375000 0.500000
vt 0.625000 0.500000
vt 0.375000 0.000000
vt 0.375000 1.000000
vt 0.125000 0.750000
vt 0.625000 0.000000
vt 0.625000 1.000000
vt 0.875000 0.750000
vt 0.125000 0.500000
vt 0.375000 0.250000
vt 0.625000 0.250000
vt 0.875000 0.500000
vt 0.375000 0.750000
vt 0.625000 0.750000
vt 0.375000 0.500000
vt 0.625000 0.500000
vt 0.375000 0.000000
vt 0.375000 1.000000
vt 0.125000 0.750000
vt 0.625000 0.000000
vt 0.625000 1.000000
vt 0.875000 0.750000
vt 0.125000 0.500000
vt 0.375000 0.250000
vt 0.625000 0.250000
vt 0.875000 0.500000
vt 0.375000 0.750000
vt 0.625000 0.750000
vt 0.375000 0.500000
vt 0.625000 0.500000
vt 0.375000 0.000000
vt 0.375000 1.000000
vt 0.125000 0.750000
vt 0.625000 0.000000
vt 0.625000 1.000000
vt 0.875000 0.750000
vt 0.125000 0.500000
vt 0.375000 0.250000
vt 0.625000 0.250000
vt 0.875000 0.500000
vt 0.375000 0.750000
vt 0.625000 0.750000
vt 0.375000 0.500000
vt 0.625000 0.500000
s 0
usemtl Material.041
f 11/20/1 12/21/1 26/39/1
f 25/38/2 8/14/2 15/26/2
f 17/28/3 18/29/3 24/37/3
f 23/36/4 2/4/4 10/17/4
f 16/27/5 19/30/5 22/35/5
f 11/19/6 20/32/6 21/34/6
f 21/34/6 6/12/6 17/28/6
f 14/24/6 17/28/6 8/14/6
f 4/9/6 21/34/6 14/24/6
f 9/15/7 19/30/7 1/1/7
f 13/22/8 9/15/8 3/7/8
f 13/22/9 16/27/9 22/35/9
f 19/31/4 10/17/4 1/2/4
f 18/29/4 19/31/4 5/11/4
f 6/12/4 23/36/4 18/29/4
f 24/37/3 5/11/3 16/27/3
f 15/26/3 16/27/3 7/13/3
f 8/14/3 24/37/3 15/26/3
f 13/23/10 15/26/10 7/13/10
f 12/21/11 13/23/11 3/8/11
f 4/10/2 25/38/2 12/21/2
f 26/39/1 3/8/1 9/16/1
f 10/18/1 9/16/1 1/3/1
f 2/6/1 26/39/1 10/18/1
f 28/43/1 29/47/1 27/40/1
f 30/48/2 33/52/2 29/47/2
f 34/53/3 31/50/3 33/52/3
f 32/51/4 27/41/4 31/50/4
f 33/52/12 27/42/12 29/46/12
f 30/49/6 32/51/6 34/53/6
f 36/57/1 37/61/1 35/54/1
f 38/62/2 41/66/2 37/61/2
f 42/67/3 39/64/3 41/66/3
f 40/65/4 35/55/4 39/64/4
f 41/66/12 35/56/12 37/60/12
f 38/63/6 40/65/6 42/67/6
f 44/71/1 45/75/1 43/68/1
f 46/76/2 49/80/2 45/75/2
f 50/81/3 47/78/3 49/80/3
f 48/79/4 43/69/4 47/78/4
f 49/80/12 43/70/12 45/74/12
f 46/77/6 48/79/6 50/81/6
f 52/85/1 53/89/1 51/82/1
f 54/90/2 57/94/2 53/89/2
f 58/95/3 55/92/3 57/94/3
f 56/93/4 51/83/4 55/92/4
f 57/94/12 51/84/12 53/88/12
f 54/91/6 56/93/6 58/95/6
f 60/99/1 61/103/1 59/96/1
f 62/104/2 65/108/2 61/103/2
f 66/109/3 63/106/3 65/108/3
f 64/107/4 59/97/4 63/106/4
f 65/108/12 59/98/12 61/102/12
f 62/105/6 64/107/6 66/109/6
f 11/20/1 4/10/1 12/21/1
f 25/38/2 14/25/2 8/14/2
f 17/28/3 6/12/3 18/29/3
f 23/36/4 20/33/4 2/4/4
f 16/27/13 5/11/13 19/30/13
f 11/19/6 2/5/6 20/32/6
f 21/34/6 20/32/6 6/12/6
f 14/24/6 21/34/6 17/28/6
f 4/9/6 11/19/6 21/34/6
f 9/15/14 22/35/14 19/30/14
f 13/22/15 22/35/15 9/15/15
f 13/22/16 7/13/16 16/27/16
f 19/31/4 23/36/4 10/17/4
f 18/29/4 23/36/4 19/31/4
f 6/12/4 20/33/4 23/36/4
f 24/37/3 18/29/3 5/11/3
f 15/26/3 24/37/3 16/27/3
f 8/14/3 17/28/3 24/37/3
f 13/23/17 25/38/17 15/26/17
f 12/21/18 25/38/18 13/23/18
f 4/10/2 14/25/2 25/38/2
f 26/39/1 12/21/1 3/8/1
f 10/18/1 26/39/1 9/16/1
f 2/6/1 11/20/1 26/39/1
f 28/43/1 30/48/1 29/47/1
f 30/48/2 34/53/2 33/52/2
f 34/53/3 32/51/3 31/50/3
f 32/51/4 28/44/4 27/41/4
f 33/52/12 31/50/12 27/42/12
f 30/49/6 28/45/6 32/51/6
f 36/57/1 38/62/1 37/61/1
f 38/62/2 42/67/2 41/66/2
f 42/67/3 40/65/3 39/64/3
f 40/65/4 36/58/4 35/55/4
f 41/66/12 39/64/12 35/56/12
f 38/63/6 36/59/6 40/65/6
f 44/71/1 46/76/1 45/75/1
f 46/76/2 50/81/2 49/80/2
f 50/81/3 48/79/3 47/78/3
f 48/79/4 44/72/4 43/69/4
f 49/80/12 47/78/12 43/70/12
f 46/77/6 44/73/6 48/79/6
f 52/85/1 54/90/1 53/89/1
f 54/90/2 58/95/2 57/94/2
f 58/95/3 56/93/3 55/92/3
f 56/93/4 52/86/4 51/83/4
f 57/94/12 55/92/12 51/84/12
f 54/91/6 52/87/6 56/93/6
f 60/99/1 62/104/1 61/103/1
f 62/104/2 66/109/2 65/108/2
f 66/109/3 64/107/3 63/106/3
f 64/107/4 60/100/4 59/97/4
f 65/108/12 63/106/12 59/98/12
f 62/105/6 60/101/6 64/107/6
